<svg width="125" height="28" viewBox="0 0 125 28" xmlns="http://www.w3.org/2000/svg" xmlns:xlink="http://www.w3.org/1999/xlink" xmlns:sketch="http://www.bohemiancoding.com/sketch/ns"><title>brand-logo</title><desc>Created with Sketch.</desc><defs><path id="a" d="M21.546.048l-19.766 4.146c-1.213.255-1.988 1.437-1.731 2.643l4.125 19.379c.256 1.203 1.448 1.974 2.66 1.72l19.765-4.146c1.214-.255 1.99-1.438 1.734-2.642l-.156-.725s-14.64 4.274-22.767-7.56c.001 0 7.165 8.811 21.079-.375l-2.28-10.72c-.258-1.205-1.448-1.972-2.662-1.72z"/></defs><g sketch:type="MSLayerGroup" fill="none"><path d="M34.349 7.907h4.96v8.702c0 1.383.545 1.959 1.577 1.959 2.122 0 3.125-1.873 3.125-4.092v-6.57h4.96v14.84h-4.759v-1.297c0-.49.057-.922.057-.922h-.057c-.803 1.585-2.638 2.565-4.616 2.565-2.925 0-5.247-1.383-5.247-5.561v-9.624zm17.289-5.763h4.96v14.465c0 1.412.258 1.902 1.376 1.902.315 0 .602-.029.602-.029v4.322s-.688.087-1.491.087c-2.638 0-5.448-.634-5.448-5.619v-15.128zm16.916 11.353h.201v-.259c0-1.239-.946-1.642-2.179-1.642-1.864 0-3.985 1.412-3.985 1.412l-1.72-3.515s2.552-1.931 6.193-1.931c4.157 0 6.652 2.276 6.652 6.051v9.134h-4.53v-.893c0-.49.057-.922.057-.922h-.057s-1.089 2.161-4.186 2.161c-2.752 0-5.017-1.844-5.017-4.783 0-4.322 6.279-4.812 8.573-4.812zm-2.179 5.792c1.29 0 2.437-1.412 2.437-2.622v-.317h-.459c-1.577 0-3.383.461-3.383 1.7 0 .691.43 1.239 1.405 1.239zm9.977-17.145h4.96v5.734c0 .749-.057 1.268-.057 1.268h.057s1.376-1.585 3.985-1.585c4.014 0 6.652 3.17 6.652 7.78 0 4.697-2.953 7.751-6.881 7.751-2.724 0-4.043-1.671-4.043-1.671h-.057s.029.375.029.836v.49h-4.645v-20.603zm7.713 16.828c1.548 0 2.896-1.268 2.896-3.544 0-2.219-1.176-3.659-2.896-3.659-1.491 0-2.896 1.095-2.896 3.659 0 1.787.946 3.544 2.896 3.544zm17.575-11.411c4.674 0 8.401 3.141 8.401 7.809 0 4.639-3.727 7.722-8.372 7.722s-8.372-3.083-8.372-7.722c0-4.668 3.727-7.809 8.343-7.809zm.029 11.382c1.806 0 3.354-1.354 3.354-3.573 0-2.248-1.548-3.659-3.354-3.659s-3.355 1.412-3.355 3.659c0 2.219 1.548 3.573 3.355 3.573zm12.73-3.544l-4.759-7.492h5.591l1.605 3.314c.201.374.459.98.459.98h.057l.459-.98 1.606-3.314h5.591l-4.731 7.492 4.645 7.348h-5.448l-1.778-3.343c-.143-.259-.344-.749-.344-.749h-.057s-.201.49-.344.749l-1.749 3.343h-5.448l4.645-7.348z" fill="#EC276D" sketch:type="MSShapeGroup"/><mask sketch:name="Symbol"><use xlink:href="#a"/></mask><use fill="#EC276D" sketch:type="MSShapeGroup" xlink:href="#a"/></g></svg>