<?xml version="1.0" encoding="UTF-8"?>
<svg width="188px" height="30px" viewBox="0 0 188 30" version="1.1" xmlns="http://www.w3.org/2000/svg" xmlns:xlink="http://www.w3.org/1999/xlink">
    <!-- Generator: Sketch 48.2 (47327) - http://www.bohemiancoding.com/sketch -->
    <title>Shape</title>
    <desc>Created with Sketch.</desc>
    <defs></defs>
    <g id="Page-1" stroke="none" stroke-width="1" fill="none" fill-rule="evenodd">
        <g id="brand_logo_blanco" fill="#FFFFFF" fill-rule="nonzero">
            <path d="M165.3,10.5 L169.8,10.5 L169.8,11.7 C169.8,12.2 169.7,12.6 169.7,12.6 L169.8,12.6 C170.5,11.6 171.8,10.2 174,10.2 C175.8,10.2 177.2,11 177.9,12.6 L178,12.6 C178.7,11.4 180.4,10.2 182.5,10.2 C185.1,10.2 187.1,11.6 187.1,15.5 L187.1,24.6 L182.4,24.6 L182.4,16.2 C182.4,15.2 182.2,14.4 181.3,14.4 C179.8,14.4 179,15.5 178.7,17.1 C178.6,17.6 178.6,18.2 178.6,18.7 L178.6,24.5 L173.9,24.5 L173.9,16.1 C173.9,15.1 173.7,14.3 172.8,14.3 C171.3,14.3 170.6,15.3 170.2,16.8 C170.1,17.3 170.1,17.9 170.1,18.6 L170.1,24.4 L165.4,24.4 L165.4,10.5 L165.3,10.5 Z M155.9,10.2 C160.4,10.2 163.9,13.2 163.9,17.6 C163.9,22 160.3,24.9 155.9,24.9 C151.5,24.9 147.9,22 147.9,17.6 C148,13.2 151.5,10.2 155.9,10.2 Z M156,21 C157.7,21 159.2,19.7 159.2,17.6 C159.2,15.5 157.7,14.1 156,14.1 C154.3,14.1 152.8,15.4 152.8,17.6 C152.8,19.7 154.2,21 156,21 Z M141.2,10.2 C145,10.2 146.8,12.3 146.8,12.3 L144.8,15.5 C144.8,15.5 143.4,14.1 141.5,14.1 C139.3,14.1 138.1,15.8 138.1,17.5 C138.1,19.2 139.3,21 141.6,21 C143.6,21 145.5,19.3 145.5,19.3 L147.2,22.6 C147.2,22.6 145.1,24.9 141.1,24.9 C136.1,24.9 133.2,21.4 133.2,17.5 C133.4,13.8 136.2,10.2 141.2,10.2 Z M127.2,20.1 L131.7,20.1 L131.7,24.6 L127.2,24.6 L127.2,20.1 Z M115.2,17.6 L110.7,10.5 L116,10.5 L117.5,13.6 C117.7,14 117.9,14.5 117.9,14.5 L118,14.5 C118,14.5 118.3,13.9 118.4,13.6 L119.9,10.5 L125.2,10.5 L120.7,17.6 L125.1,24.6 L119.9,24.6 L118.2,21.4 C118.1,21.2 117.9,20.7 117.9,20.7 L117.8,20.7 C117.8,20.7 117.6,21.2 117.5,21.4 L115.8,24.6 L110.6,24.6 L115.2,17.6 Z M103,10.2 C107.5,10.2 111,13.2 111,17.6 C111,22 107.4,24.9 103,24.9 C98.6,24.9 95,22 95,17.6 C95,13.2 98.6,10.2 103,10.2 Z M103,21 C104.7,21 106.2,19.7 106.2,17.6 C106.2,15.5 104.7,14.1 103,14.1 C101.3,14.1 99.8,15.4 99.8,17.6 C99.8,19.7 101.3,21 103,21 Z M78.8,5 L83.5,5 L83.5,10.4 C83.5,11.1 83.4,11.6 83.4,11.6 L83.5,11.6 C83.5,11.6 84.8,10.1 87.3,10.1 C91.1,10.1 93.7,13.1 93.7,17.5 C93.7,22 90.9,24.9 87.1,24.9 C84.5,24.9 83.2,23.3 83.2,23.3 L83.1,23.3 C83.1,23.3 83.1,23.7 83.1,24.1 L83.1,24.6 L78.7,24.6 L78.8,5 Z M86.2,21 C87.7,21 89,19.8 89,17.6 C89,15.5 87.9,14.1 86.2,14.1 C84.8,14.1 83.4,15.1 83.4,17.6 C83.4,19.4 84.3,21 86.2,21 Z M71.4,15.8 L71.6,15.8 L71.6,15.6 C71.6,14.4 70.7,14 69.5,14 C67.7,14 65.7,15.3 65.7,15.3 L64,12 C64,12 66.4,10.2 69.9,10.2 C73.9,10.2 76.3,12.4 76.3,16 L76.3,24.7 L72,24.7 L72,23.9 C72,23.4 72.1,23 72.1,23 L72,23 C72,23 71,25.1 68,25.1 C65.4,25.1 63.2,23.3 63.2,20.6 C63.2,16.3 69.2,15.8 71.4,15.8 Z M69.3,21.3 C70.5,21.3 71.6,20 71.6,18.8 L71.6,18.5 L71.2,18.5 C69.7,18.5 68,18.9 68,20.1 C67.9,20.8 68.4,21.3 69.3,21.3 Z M55.2,5 L59.9,5 L59.9,18.7 C59.9,20 60.1,20.5 61.2,20.5 C61.5,20.5 61.8,20.5 61.8,20.5 L61.8,24.6 C61.8,24.6 61.1,24.7 60.4,24.7 C57.9,24.7 55.2,24.1 55.2,19.4 L55.2,5 Z M38.7,10.5 L43.4,10.5 L43.4,18.8 C43.4,20.1 43.9,20.7 44.9,20.7 C46.9,20.7 47.9,18.9 47.9,16.8 L47.9,10.6 L52.6,10.6 L52.6,24.7 L48.1,24.7 L48.1,23.5 C48.1,23 48.2,22.6 48.2,22.6 L48.1,22.6 C47.3,24.1 45.6,25 43.7,25 C40.9,25 38.7,23.7 38.7,19.7 L38.7,10.5 Z M23.9,0.1 C25.2,-0.2 26.5,0.6 26.7,1.9 L29.2,13.4 C14.4,23.2 6.7,13.8 6.7,13.8 C15.3,26.5 31,21.9 31,21.9 L31.1,22.7 C31.3,24 30.5,25.2 29.2,25.5 L8.1,29.9 C6.8,30.2 5.6,29.4 5.3,28.1 L0.9,7.3 C0.6,6 1.5,4.8 2.8,4.5 L23.9,0.1 Z" id="Shape"></path>
        </g>
    </g>
</svg>